<svg xmlns="http://www.w3.org/2000/svg" width="105.813" height="127.9" viewBox="0 0 105.813 127.9">
  <g id="Group_1701" data-name="Group 1701" transform="translate(-254.361 -165.6)">
    <path id="Union_5" data-name="Union 5" d="M1214.426,398.443a3.581,3.581,0,0,1-3.581-3.581V384.369a3.581,3.581,0,0,1,3.581-3.581h16.691a7.847,7.847,0,1,1,15.694,0h16.037a3.581,3.581,0,0,1,3.581,3.581v10.492a3.581,3.581,0,0,1-3.581,3.581Z" transform="translate(-941.713 -207.341)" fill="#00a4b6"/>
    <path id="Subtraction_2" data-name="Subtraction 2" d="M1245.512,530.122h-68.44a5.67,5.67,0,0,1-5.67-5.67h0V424.623a5.67,5.67,0,0,1,5.67-5.67h68.44a5.67,5.67,0,0,1,5.67,5.67v99.829a5.67,5.67,0,0,1-5.67,5.67Z" transform="translate(-914.041 -239.622)" fill="none" stroke="#00a4b6" stroke-width="6"/>
    <path id="search-alt-2-svgrepo-com" d="M23.4,10.652A12.753,12.753,0,0,1,36.157,23.4m1.68,14.423L48.909,48.909M43.808,23.4A20.4,20.4,0,1,1,23.4,3,20.4,20.4,0,0,1,43.808,23.4Z" transform="translate(307.729 238.788)" fill="#fff" stroke="#00d2e9" stroke-linecap="round" stroke-linejoin="round" stroke-width="5"/>
    <path id="Subtraction_2-2" data-name="Subtraction 2" d="M1186.627,484.346a1.494,1.494,0,0,0-1.492,1.492v2.9a1.494,1.494,0,0,0,1.492,1.492h27.75a1.494,1.494,0,0,0,1.492-1.492v-2.9a1.494,1.494,0,0,0-1.492-1.492Zm0-17.656a1.494,1.494,0,0,0-1.492,1.492v2.9a1.494,1.494,0,0,0,1.492,1.492H1235.3a1.493,1.493,0,0,0,1.492-1.492v-2.9a1.493,1.493,0,0,0-1.492-1.492Zm0-18.31a1.494,1.494,0,0,0-1.492,1.492v2.9a1.494,1.494,0,0,0,1.492,1.492H1235.3a1.494,1.494,0,0,0,1.492-1.492v-2.9a1.494,1.494,0,0,0-1.492-1.492Z" transform="translate(-914.041 -239.622)" fill="#00a4b6"/>
  </g>
</svg>
